<?xml version="1.0" encoding="UTF-8" standalone="no"?>
<!-- Created with Inkscape (http://www.inkscape.org/) -->

<svg
   width="4.2142792mm"
   height="4.2333527mm"
   viewBox="0 0 4.2142792 4.2333527"
   version="1.1"
   id="svg5"
   xml:space="preserve"
   xmlns:inkscape="http://www.inkscape.org/namespaces/inkscape"
   xmlns:sodipodi="http://sodipodi.sourceforge.net/DTD/sodipodi-0.dtd"
   xmlns="http://www.w3.org/2000/svg"
   xmlns:svg="http://www.w3.org/2000/svg"><sodipodi:namedview
     id="namedview7"
     pagecolor="#505050"
     bordercolor="#eeeeee"
     borderopacity="1"
     inkscape:showpageshadow="0"
     inkscape:pageopacity="0"
     inkscape:pagecheckerboard="0"
     inkscape:deskcolor="#505050"
     inkscape:document-units="mm"
     showgrid="false" /><defs
     id="defs2" /><g
     inkscape:label="Camada 1"
     inkscape:groupmode="layer"
     id="layer1"
     transform="translate(-139.93227,-147.56132)"><g
       style="fill:#ffffff"
       id="g224"
       transform="matrix(0.26458333,0,0,0.26458333,139.93227,147.56134)"><path
         d="M 13.601,2.326 A 7.854,7.854 0 0 0 7.994,0 c -4.367,0 -7.926,3.558 -7.93,7.926 0,1.399 0.366,2.76 1.057,3.965 L 0,16 4.204,14.898 a 7.933,7.933 0 0 0 3.79,0.965 h 0.004 c 4.368,0 7.926,-3.558 7.93,-7.93 A 7.898,7.898 0 0 0 13.6,2.326 Z M 7.994,14.521 A 6.573,6.573 0 0 1 4.638,13.601 L 4.398,13.457 1.904,14.111 2.57,11.678 2.414,11.427 A 6.56,6.56 0 0 1 1.407,7.922 c 0,-3.626 2.957,-6.584 6.591,-6.584 a 6.56,6.56 0 0 1 4.66,1.931 6.557,6.557 0 0 1 1.928,4.66 c -0.004,3.639 -2.961,6.592 -6.592,6.592 z M 11.609,9.587 C 11.412,9.488 10.439,9.009 10.256,8.941 10.074,8.876 9.941,8.842 9.811,9.04 9.678,9.237 9.298,9.686 9.184,9.815 9.07,9.948 8.952,9.963 8.754,9.865 8.557,9.765 7.918,9.557 7.162,8.88 6.572,8.355 6.177,7.705 6.059,7.508 5.945,7.31 6.048,7.204 6.147,7.105 6.234,7.017 6.344,6.873 6.443,6.759 6.543,6.645 6.576,6.561 6.641,6.429 6.706,6.295 6.675,6.181 6.626,6.082 6.576,5.983 6.181,5.006 6.014,4.612 5.854,4.223 5.691,4.277 5.569,4.272 5.455,4.265 5.322,4.265 5.189,4.265 A 0.729,0.729 0 0 0 4.66,4.512 C 4.478,4.71 3.969,5.189 3.969,6.166 c 0,0.977 0.71,1.916 0.81,2.049 0.098,0.133 1.394,2.132 3.383,2.992 0.47,0.205 0.84,0.326 1.129,0.418 0.475,0.152 0.904,0.129 1.246,0.08 0.38,-0.058 1.171,-0.48 1.338,-0.943 0.164,-0.464 0.164,-0.86 0.114,-0.943 C 11.94,9.735 11.807,9.686 11.609,9.587 Z"
         id="path215"
         style="fill:#ffffff" /></g></g></svg>
